<svg xmlns="http://www.w3.org/2000/svg" viewBox="0 0 320 400" role="img" aria-labelledby="title desc">
  <title id="title">Ivy pixel portrait</title>
  <desc id="desc">Green hidden route pixel character portrait.</desc>
  <rect width="320" height="400" fill="none"/>
  <g shape-rendering="crispEdges">
    <rect x="108" y="34" width="104" height="28" fill="#2f5944"/>
    <rect x="86" y="62" width="148" height="116" fill="#2f5944"/>
    <rect x="110" y="82" width="100" height="92" fill="#ffd8c6"/>
    <rect x="92" y="122" width="24" height="38" fill="#ffd8c6"/>
    <rect x="204" y="122" width="24" height="38" fill="#ffd8c6"/>
    <rect x="126" y="112" width="14" height="16" fill="#283338"/>
    <rect x="180" y="112" width="14" height="16" fill="#283338"/>
    <rect x="148" y="146" width="24" height="8" fill="#d95b76"/>
    <rect x="104" y="186" width="112" height="72" fill="#4bb991"/>
    <rect x="88" y="210" width="24" height="78" fill="#ffd8c6"/>
    <rect x="208" y="210" width="24" height="78" fill="#ffd8c6"/>
    <rect x="124" y="258" width="72" height="84" fill="#fffdf7"/>
    <rect x="108" y="248" width="104" height="22" fill="#f8a8c6"/>
    <rect x="132" y="342" width="20" height="36" fill="#2f5944"/>
    <rect x="168" y="342" width="20" height="36" fill="#2f5944"/>
    <rect x="116" y="378" width="42" height="14" fill="#283338"/>
    <rect x="162" y="378" width="42" height="14" fill="#283338"/>
    <rect x="68" y="76" width="26" height="18" fill="#7bdcb5"/>
    <rect x="58" y="94" width="36" height="18" fill="#4bb991"/>
    <rect x="226" y="76" width="26" height="18" fill="#7bdcb5"/>
    <rect x="226" y="94" width="36" height="18" fill="#4bb991"/>
  </g>
</svg>
