<svg xmlns="http://www.w3.org/2000/svg" viewBox="0 0 160 180" width="160" height="180" shape-rendering="crispEdges">
  
  <g fill="#A9A9A9">
    <rect x="50" y="10" width="60" height="10" />
    <rect x="40" y="20" width="80" height="10" />
    <rect x="30" y="30" width="100" height="70" /> </g>

  <g fill="#FFD700">
    <rect x="60" y="20" width="40" height="10" /> <rect x="30" y="40" width="10" height="30" /> <rect x="120" y="40" width="10" height="30" />
    <rect x="90" y="5" width="20" height="15" />
  </g>

  <g fill="#FFF0E0">
    <rect x="50" y="40" width="60" height="40" /> <rect x="75" y="80" width="10" height="10" /> <rect x="40" y="90" width="10" height="20" /> <rect x="110" y="90" width="10" height="20" />
  </g>

  <g fill="#4682B4">
    <rect x="60" y="55" width="10" height="15" />
    <rect x="90" y="55" width="10" height="15" />
  </g>

  <g fill="#708090">
    <rect x="50" y="90" width="60" height="10" /> <rect x="40" y="100" width="80" height="40" /> </g>

  <g fill="#FF8C00">
    <rect x="70" y="100" width="20" height="30" /> <rect x="50" y="70" width="10" height="5" /> <rect x="100" y="70" width="10" height="5" />
  </g>

  <g fill="#2F4F4F">
    <rect x="60" y="140" width="10" height="20" /> <rect x="90" y="140" width="10" height="20" />
    <rect x="55" y="160" width="20" height="10" /> <rect x="85" y="160" width="20" height="10" />
  </g>

</svg>
