<svg xmlns="http://www.w3.org/2000/svg" viewBox="0 0 160 180" width="160" height="180" shape-rendering="crispEdges">
  
  <!-- 1. 銀白髮色 (三無少女標配，後髮底色) -->
  <g fill="#F8FAFC">
    <rect x="50" y="20" width="60" height="10" />
    <rect x="40" y="30" width="80" height="20" />
  </g>

  <!-- 2. 白皙柔軟的正常膚色 (不再是金屬了！) -->
  <g fill="#FFE4C4">
    <rect x="45" y="50" width="70" height="40" /> <!-- 臉部 -->
    <rect x="70" y="90" width="20" height="10" /> <!-- 脖子 -->
    
    <!-- 香肩外露 (反差萌核心) -->
    <rect x="40" y="100" width="15" height="10" />
    <rect x="105" y="100" width="15" height="10" />

    <!-- 絕對領域 (裙子與過膝襪之間的大腿) -->
    <rect x="60" y="140" width="15" height="15" />
    <rect x="85" y="140" width="15" height="15" />
  </g>

  <!-- 3. 無辜但清澈的數位大眼 -->
  <g fill="#0EA5E9">
    <rect x="50" y="65" width="15" height="15" />
    <rect x="95" y="65" width="15" height="15" />
  </g>

  <!-- 4. 系統異常的「臉紅」(攻略慾望來源！) -->
  <g fill="#FFB6C1">
    <rect x="45" y="80" width="15" height="5" />
    <rect x="100" y="80" width="15" height="5" />
  </g>

  <!-- 5. 姬髮式瀏海 (Hime Cut，銀白色) -->
  <g fill="#F1F5F9">
    <rect x="45" y="40" width="70" height="10" /> <!-- 齊瀏海 -->
    <rect x="35" y="40" width="10" height="55" /> <!-- 左側鬢角長髮 -->
    <rect x="115" y="40" width="10" height="55" /> <!-- 右側鬢角長髮 -->
  </g>

  <!-- 6. 雲端發票本體：緊身科技內衣 -->
  <g fill="#FFFFFF">
    <rect x="60" y="100" width="40" height="40" /> <!-- 軀幹 -->
    <!-- 胸口的載具條碼 (保留她的身世設定) -->
    <rect x="65" y="110" width="4" height="15" fill="#1A1A1A" />
    <rect x="72" y="110" width="2" height="15" fill="#1A1A1A" />
    <rect x="78" y="110" width="6" height="15" fill="#1A1A1A" />
    <rect x="87" y="110" width="3" height="15" fill="#1A1A1A" />
    <rect x="94" y="110" width="2" height="15" fill="#1A1A1A" />
  </g>

  <!-- 7. 寬鬆滑落的科技外套 (深灰色) -->
  <g fill="#1E293B">
    <!-- 故意畫在肩膀下方的寬大袖子 -->
    <rect x="30" y="110" width="25" height="40" />
    <rect x="105" y="110" width="25" height="40" />
    <!-- 遮住一半的裙襬 -->
    <rect x="50" y="130" width="60" height="10" />
  </g>

  <!-- 8. 過膝長襪 (Zettai Ryouiki 配件) -->
  <g fill="#111827">
    <rect x="60" y="155" width="15" height="25" />
    <rect x="85" y="155" width="15" height="25" />
  </g>

  <!-- 9. 數位感發光點綴 (青藍色) -->
  <g fill="#38BDF8">
    <rect x="30" y="145" width="25" height="5" /> <!-- 袖口發光 -->
    <rect x="105" y="145" width="25" height="5" />
    <rect x="60" y="155" width="15" height="3" /> <!-- 襪口發光圈 -->
    <rect x="85" y="155" width="15" height="3" />
  </g>

</svg>
